
      <svg data-logo="logo" xmlns="http://www.w3.org/2000/svg" viewBox="0 0 284 43">
        <g id="logogram" transform="translate(0, 1) rotate(0) "><path fill-rule="evenodd" clip-rule="evenodd" d="M20.9053 40.0799C31.951 40.0799 40.9053 31.1256 40.9053 20.0799C40.9053 9.03427 31.951 0.0799561 20.9053 0.0799561C9.85956 0.0799561 0.905273 9.03427 0.905273 20.0799C0.905273 31.1256 9.85956 40.0799 20.9053 40.0799ZM27.1446 9.3968C27.4483 8.31801 26.4014 7.68008 25.4453 8.36125L12.0984 17.8695C11.0615 18.6082 11.2246 20.0799 12.3434 20.0799H15.858V20.0527H22.7078L17.1265 22.022L14.666 30.7631C14.3623 31.8419 15.4091 32.4798 16.3653 31.7986L29.7122 22.2904C30.7491 21.5517 30.5859 20.0799 29.4672 20.0799H24.1374L27.1446 9.3968Z" fill="#F15757"/></g>
        <g id="logotype" transform="translate(47, 7)"><path fill="#111111" d="M6.70 1.75L6.70 1.75L34.25 1.75Q36.59 1.75 38.13 2.64Q39.67 3.53 40.46 4.93Q41.25 6.33 41.25 7.87L41.25 7.87Q41.25 9.41 40.44 10.87Q39.64 12.32 38.01 13.23Q36.38 14.14 33.93 14.14L33.93 14.14Q33.93 14.14 33.91 14.14Q33.90 14.14 33.91 14.16Q33.93 14.17 33.93 14.17L33.93 14.17Q36.77 14.17 38.62 15.19Q40.48 16.20 41.39 17.78Q42.30 19.35 42.30 21.11L42.30 21.11Q42.30 22.40 41.79 23.63Q41.28 24.85 40.27 25.85Q39.25 26.84 37.75 27.42Q36.24 28 34.25 28L34.25 28L6.70 28Q6.70 25.62 6.70 23.26Q6.70 20.89 6.70 18.52Q6.70 16.13 6.70 13.77Q6.70 11.41 6.70 9.03L6.70 9.03Q6.70 7.21 6.70 5.39Q6.70 3.57 6.70 1.75ZM20.49 15.54L20.49 15.54Q20.49 15.92 20.49 16.31Q20.49 16.70 20.49 17.08L20.49 17.08Q20.49 17.36 20.49 17.62Q20.49 17.88 20.49 18.13Q20.49 18.38 20.49 18.62L20.49 18.62Q20.49 18.66 20.49 18.66Q20.49 18.66 20.53 18.66L20.53 18.66L25.50 18.66Q26.44 18.66 26.91 18.16Q27.39 17.67 27.39 17.04L27.39 17.04Q27.39 16.73 27.28 16.47Q27.18 16.20 26.98 15.98Q26.79 15.75 26.49 15.63Q26.20 15.50 25.81 15.50L25.81 15.50L20.53 15.50Q20.53 15.50 20.51 15.52Q20.49 15.54 20.49 15.54ZM25.64 10.60L20.53 10.60Q20.49 10.60 20.49 10.62Q20.49 10.64 20.49 10.64L20.49 10.64Q20.49 10.85 20.49 11.11Q20.49 11.38 20.49 11.64Q20.49 11.90 20.49 12.18L20.49 12.18Q20.49 12.56 20.49 12.97Q20.49 13.37 20.49 13.72L20.49 13.72Q20.49 13.75 20.49 13.75Q20.49 13.75 20.53 13.75L20.53 13.75L25.32 13.75Q25.95 13.75 26.37 13.53Q26.79 13.30 27.00 12.93Q27.21 12.56 27.21 12.14L27.21 12.14Q27.21 11.55 26.81 11.08Q26.41 10.60 25.64 10.60L25.64 10.60ZM57.84 17.64L57.84 17.64Q57.84 17.67 57.85 17.69Q57.87 17.71 57.91 17.71L57.91 17.71L71.56 17.71L71.56 28L43.31 28Q43.31 25.83 43.31 23.66Q43.31 21.49 43.31 19.30Q43.31 17.11 43.31 14.94Q43.31 12.77 43.31 10.60L43.31 10.60Q43.31 8.40 43.31 6.18Q43.31 3.95 43.31 1.75L43.31 1.75L57.84 1.75Q57.84 3.74 57.84 5.72Q57.84 7.70 57.84 9.69Q57.84 11.69 57.84 13.67Q57.84 15.64 57.84 17.64ZM91.61 0.70L91.61 0.70Q88.39 0.70 85.71 1.17Q83.04 1.64 80.90 2.54Q78.77 3.43 77.17 4.67Q75.58 5.91 74.51 7.49Q73.45 9.06 72.90 10.92Q72.36 12.77 72.36 14.84L72.36 14.84Q72.36 16.41 72.69 17.95Q73.03 19.49 73.74 20.89Q74.46 22.29 75.56 23.54Q76.67 24.78 78.19 25.80Q79.71 26.81 81.71 27.53Q83.70 28.25 86.17 28.65Q88.64 29.05 91.61 29.05L91.61 29.05Q95.78 29.05 98.94 28.30Q102.11 27.55 104.39 26.20Q106.66 24.85 108.09 23.05Q109.53 21.24 110.20 19.16Q110.86 17.08 110.86 14.84L110.86 14.84Q110.86 10.71 108.73 7.52Q106.59 4.34 102.32 2.52Q98.05 0.70 91.61 0.70ZM91.65 11.83L91.65 11.83Q92.87 11.83 93.71 12.11Q94.55 12.39 95.04 12.83Q95.53 13.26 95.76 13.79Q95.99 14.31 95.99 14.84L95.99 14.84Q95.99 15.29 95.84 15.73Q95.71 16.17 95.37 16.57Q95.04 16.98 94.53 17.27Q94.03 17.57 93.31 17.74Q92.59 17.92 91.65 17.92L91.65 17.92Q90.04 17.92 89.06 17.46Q88.08 17.01 87.66 16.31Q87.24 15.61 87.24 14.87L87.24 14.87Q87.24 14.31 87.46 13.77Q87.69 13.23 88.20 12.79Q88.71 12.35 89.56 12.09Q90.42 11.83 91.65 11.83ZM130.84 0.70L130.84 0.70Q137.08 0.70 141.14 2.24Q145.20 3.78 147.37 6.42Q149.54 9.06 150.10 12.39L150.10 12.39L134.98 15.96Q135.36 14.63 135.01 13.65Q134.66 12.67 133.61 12.11Q132.56 11.55 130.81 11.55L130.81 11.55Q129.17 11.55 128.20 12.00Q127.24 12.46 126.84 13.14Q126.44 13.82 126.44 14.59L126.44 14.59Q126.44 15.15 126.68 15.66Q126.93 16.17 127.45 16.59Q127.98 17.01 128.81 17.25Q129.66 17.50 130.81 17.50L130.81 17.50Q132.59 17.50 133.58 17.10Q134.56 16.70 134.98 15.96L134.98 15.96Q134.42 18.02 133.86 20.13Q133.30 22.23 132.72 24.34Q132.14 26.46 131.58 28.52L131.58 28.52Q130.64 28.70 129.74 28.79Q128.85 28.88 127.63 28.88L127.63 28.88Q124.97 28.88 122.74 28.39Q120.52 27.89 118.74 27.00Q116.95 26.11 115.60 24.85Q114.26 23.59 113.36 22.03Q112.47 20.48 112.02 18.67Q111.56 16.87 111.56 14.91L111.56 14.91Q111.56 13.30 111.89 11.78Q112.23 10.25 112.94 8.84Q113.66 7.42 114.78 6.18Q115.90 4.93 117.42 3.94Q118.95 2.94 120.94 2.20Q122.94 1.47 125.40 1.08Q127.87 0.70 130.84 0.70ZM149.81 28L134.98 28Q134.98 25.97 134.98 23.98Q134.98 21.98 134.98 19.97Q134.98 17.95 134.98 15.96L134.98 15.96Q137.46 15.96 139.93 15.96Q142.40 15.96 144.88 15.96Q147.37 15.96 149.81 15.96L149.81 15.96L149.81 28ZM165.95 28L151.43 28Q151.43 25.48 151.43 22.96Q151.43 20.44 151.43 17.92Q151.43 15.40 151.43 12.88Q151.43 10.36 151.43 7.84L151.43 7.84Q151.43 6.30 151.43 4.78Q151.43 3.25 151.43 1.75L151.43 1.75L165.95 1.75Q165.95 5.14 165.95 8.52Q165.95 11.90 165.95 15.29L165.95 15.29Q165.95 17.39 165.95 19.51Q165.95 21.63 165.95 23.75Q165.95 25.86 165.95 28L165.95 28ZM196.79 1.75L196.79 12.04L181.91 12.04Q181.91 12.04 181.91 12.04Q181.91 12.04 181.91 12.04Q181.91 12.04 181.91 12.06Q181.91 12.07 181.91 12.07L181.91 12.07L181.91 14.10Q181.91 14.14 181.91 14.14Q181.91 14.14 181.91 14.14L181.91 14.14L196.26 14.14L196.26 22.47L181.91 22.47Q181.91 22.47 181.91 22.47Q181.91 22.47 181.91 22.50L181.91 22.50Q181.91 23.70 181.91 24.48Q181.91 25.27 181.91 26.04Q181.91 26.81 181.91 28L181.91 28L167.35 28Q167.35 25.52 167.35 23.03Q167.35 20.54 167.35 18.08Q167.35 15.61 167.35 13.12Q167.35 10.64 167.35 8.15L167.35 8.15Q167.35 6.54 167.35 4.95Q167.35 3.36 167.35 1.75L167.35 1.75L196.79 1.75ZM219.64 1.75L219.64 1.75L235.53 1.75Q233.61 5.25 231.68 8.75Q229.76 12.25 227.81 15.75Q225.87 19.25 223.95 22.75L223.95 22.75Q223.95 22.75 223.95 22.75Q223.95 22.75 223.95 22.75L223.95 22.75L223.95 28L209.42 28L209.42 22.71Q209.42 22.71 209.42 22.71Q209.42 22.71 209.42 22.71L209.42 22.71Q208.20 20.61 206.99 18.52Q205.78 16.41 204.57 14.31Q203.37 12.21 202.14 10.13Q200.92 8.05 199.71 5.95Q198.50 3.85 197.28 1.75L197.28 1.75L214.08 1.75Q214.53 3.43 214.97 5.11Q215.41 6.79 215.86 8.47Q216.32 10.15 216.74 11.83L216.74 11.83Q216.74 11.83 216.75 11.85Q216.77 11.86 216.77 11.86Q216.77 11.86 216.79 11.85Q216.81 11.83 216.81 11.83L216.81 11.83Q217.16 10.57 217.51 9.31Q217.86 8.05 218.22 6.79Q218.59 5.53 218.94 4.27Q219.29 3.01 219.64 1.75Z"/></g>
        
      </svg>
    